<svg xmlns="http://www.w3.org/2000/svg" viewBox="0 0 350 207"><defs><style>.cls-1{fill:#fff;}.cls-2{isolation:isolate;}.cls-3{fill:#c47a67;}</style></defs><g id="Layer_2" data-name="Layer 2"><g id="Layer_1-2" data-name="Layer 1"><rect id="Rectangle_126-2" data-name="Rectangle 126-2" class="cls-1" width="350" height="207"/><g id="Group_218" data-name="Group 218"><g id="Ravyyn" class="cls-2"><g class="cls-2"></g></g></g><g id="Group_191" data-name="Group 191"><g id="Or" class="cls-2"><g class="cls-2"><path d="M172.48,144a3.57,3.57,0,1,1-3.43,3.55A3.39,3.39,0,0,1,172.48,144Zm0,1a2.26,2.26,0,0,0-2.13,2.5,2.16,2.16,0,1,0,4.26,0A2.27,2.27,0,0,0,172.48,145Z"/><path d="M181,144v1.4a2.24,2.24,0,0,0-.7-.13,1.73,1.73,0,0,0-1.61,1.81v3.86h-1.3v-6.82h1.3v1.76A2.39,2.39,0,0,1,181,144Z"/></g></g></g><g id="Rectangle_128" data-name="Rectangle 128"><rect class="cls-3" x="29.05" y="131.53" width="130" height="32"/><path d="M159.05,163.53h-130v-32h130Zm-129-1h128v-30h-128Z"/></g><g id="Upload_my_ad" data-name="Upload my ad" class="cls-2"><g class="cls-2"><path class="cls-1" d="M54.61,143.13h1.62v5.38a1.89,1.89,0,0,0,1.94,1.86,1.84,1.84,0,0,0,1.88-1.86v-5.38h1.61v5.5a3.22,3.22,0,0,1-3.5,3.06c-1.91,0-3.55-1.18-3.55-3.06Z"/><path class="cls-1" d="M69.75,148.46a3,3,0,0,1-2.89,3.24,2.53,2.53,0,0,1-2.15-1.3v3.23H63.15v-8.4h1.56v1.24a2.24,2.24,0,0,1,2.05-1.41C68.51,145.06,69.75,146.46,69.75,148.46Zm-1.56,0c0-1.31-.71-2.23-1.7-2.23s-1.78.9-1.78,2.18a1.88,1.88,0,0,0,1.78,2.12C67.48,150.52,68.19,149.67,68.19,148.45Z"/><path class="cls-1" d="M72.49,143.13v8.4H70.93v-8.4Z"/><path class="cls-1" d="M76.94,145.06a3.32,3.32,0,0,1,0,6.64,3.32,3.32,0,0,1,0-6.64Zm0,1.26c-1.07,0-1.71.86-1.71,2s.64,2.1,1.71,2.1,1.72-.88,1.72-2.1A1.8,1.8,0,0,0,76.94,146.32Z"/><path class="cls-1" d="M87.09,147.52v4H85.53v-2.06A2.73,2.73,0,0,1,83,151.65a1.72,1.72,0,0,1-1.9-1.66c0-1.18,1.26-1.87,2.55-2.16l1.92-.44v0a1.16,1.16,0,0,0-1.32-1.12,1.39,1.39,0,0,0-1.49,1.47H81.17a2.76,2.76,0,0,1,3-2.63C85.87,145.06,87.09,146,87.09,147.52Zm-1.56.72-1.62.55c-.73.24-1.16.63-1.16,1s.27.59.8.59A2.27,2.27,0,0,0,85.53,148.24Z"/><path class="cls-1" d="M94.79,143.13v8.4H93.24v-1.24a2.24,2.24,0,0,1-2.06,1.41c-1.75,0-3-1.39-3-3.4a3,3,0,0,1,2.89-3.24,2.54,2.54,0,0,1,2.15,1.3v-3.23Zm-1.55,5.23a1.9,1.9,0,0,0-1.78-2.12c-1,0-1.7.85-1.7,2.08s.7,2.23,1.7,2.23S93.24,149.65,93.24,148.36Z"/><path class="cls-1" d="M108.56,151.53h-1.62v-7.07l-2,7.07h-2.35l-1.87-7v7H99.13v-8.4h2.72l2,7.28,2.11-7.28h2.64Z"/><path class="cls-1" d="M115.94,145.23l-2.47,6.49c-.57,1.44-1.12,2.09-2.16,2.09a2.26,2.26,0,0,1-1.38-.42V152a2.11,2.11,0,0,0,1.16.42c.43,0,.64-.36.85-.9l0-.12-2.5-6.18h1.58l1.67,4.27,1.67-4.27Z"/><path class="cls-1" d="M124.15,149.47h-3.57l-.76,2.06h-1.68l3.14-8.4h2.17l3.13,8.4h-1.67Zm-.54-1.45-1.24-3.33L121.12,148Z"/><path class="cls-1" d="M133.49,143.13v8.4h-1.55v-1.24a2.24,2.24,0,0,1-2.06,1.41c-1.75,0-3-1.39-3-3.4a3,3,0,0,1,2.89-3.24,2.54,2.54,0,0,1,2.15,1.3v-3.23Zm-1.55,5.23a1.9,1.9,0,0,0-1.78-2.12c-1,0-1.7.85-1.7,2.08s.7,2.23,1.7,2.23S131.94,149.65,131.94,148.36Z"/></g></g><g id="Group_212" data-name="Group 212"><g id="Rectangle_136" data-name="Rectangle 136"><rect class="cls-3" x="190.95" y="131.53" width="130" height="32"/><path d="M321,163.53H191v-32H321Zm-129-1H320v-30H192Z"/></g></g><g id="Create_Custom_Ad" data-name="Create Custom Ad" class="cls-2"><g class="cls-2"><path class="cls-1" d="M207.53,143a3.58,3.58,0,0,1,3.78,3.59h-1.62c-.16-1.33-.89-2.23-2.16-2.23-1.47,0-2.55,1.24-2.55,3s1.1,3,2.56,3a2.11,2.11,0,0,0,2.15-2.05h1.62a3.49,3.49,0,0,1-3.75,3.41,4.37,4.37,0,0,1,0-8.74Z"/><path class="cls-1" d="M216.2,145.12v1.68a2.82,2.82,0,0,0-.9-.17,1.19,1.19,0,0,0-1.23,1.3v3.6h-1.56v-6.3h1.56v1.56A2.14,2.14,0,0,1,216.2,145.12Z"/><path class="cls-1" d="M219.77,145.06c2.11,0,3.13,1.68,3.15,3.69h-4.7a1.6,1.6,0,0,0,1.67,1.76,1.55,1.55,0,0,0,1.56-1l1.29.57A2.88,2.88,0,0,1,220,151.7a3.17,3.17,0,0,1-3.34-3.3A3.12,3.12,0,0,1,219.77,145.06Zm0,1.19a1.5,1.5,0,0,0-1.53,1.44h3A1.46,1.46,0,0,0,219.79,146.25Z"/><path class="cls-1" d="M229.75,147.52v4h-1.56v-2.06a2.74,2.74,0,0,1-2.57,2.18,1.72,1.72,0,0,1-1.9-1.66c0-1.18,1.26-1.87,2.55-2.16l1.92-.44v0a1.16,1.16,0,0,0-1.32-1.13,1.4,1.4,0,0,0-1.49,1.48h-1.55a2.76,2.76,0,0,1,3-2.63C228.53,145.06,229.75,146,229.75,147.52Zm-1.56.72-1.62.55c-.73.24-1.16.63-1.16,1s.27.59.8.59A2.27,2.27,0,0,0,228.19,148.24Z"/><path class="cls-1" d="M235.1,149.93v1.32a1.89,1.89,0,0,1-1.35.45,2,2,0,0,1-2-2.29v-3h-1.25v-1.17h1.25l.38-1.86h1.18v1.86h1.56v1.17h-1.56v3c0,.77.4,1,.91,1A1,1,0,0,0,235.1,149.93Z"/><path class="cls-1" d="M238.76,145.06c2.11,0,3.13,1.68,3.16,3.69h-4.7a1.6,1.6,0,0,0,1.66,1.76,1.54,1.54,0,0,0,1.56-1l1.3.57A2.88,2.88,0,0,1,239,151.7a3.18,3.18,0,0,1-3.35-3.3A3.12,3.12,0,0,1,238.76,145.06Zm0,1.19a1.5,1.5,0,0,0-1.54,1.44h3A1.46,1.46,0,0,0,238.79,146.25Z"/><path class="cls-1" d="M249.56,143a3.58,3.58,0,0,1,3.78,3.59h-1.62c-.15-1.33-.89-2.23-2.16-2.23-1.46,0-2.54,1.24-2.54,3s1.09,3,2.56,3a2.1,2.1,0,0,0,2.14-2.05h1.62a3.48,3.48,0,0,1-3.74,3.41,4.37,4.37,0,0,1,0-8.74Z"/><path class="cls-1" d="M260.31,145.23v6.3h-1.56v-1.75a2.27,2.27,0,0,1-2.18,1.9c-1.28,0-2.1-.88-2.1-2.43v-4H256v3.12c0,.83.1,1.89,1.2,1.89,1.37,0,1.52-1.75,1.52-2.6v-2.41Z"/><path class="cls-1" d="M263,149.35c0,.87,1,1.18,1.53,1.18s1.14-.31,1.14-.78-.57-.61-1.22-.73c-1.11-.21-2.8-.37-2.8-1.89,0-1.07.87-2.07,2.64-2.07a2.37,2.37,0,0,1,2.69,2.28h-1.56a1,1,0,0,0-1.1-1.11c-.57,0-1.11.31-1.11.8s.48.54,1.23.67c1.12.22,2.78.47,2.78,1.88,0,.93-.73,2.12-2.75,2.12s-3-1.21-3-2.35Z"/><path class="cls-1" d="M272.18,149.93v1.32a1.89,1.89,0,0,1-1.35.45,2,2,0,0,1-2-2.29v-3h-1.25v-1.17h1.25l.38-1.86h1.18v1.86h1.56v1.17h-1.56v3c0,.77.4,1,.91,1A1,1,0,0,0,272.18,149.93Z"/><path class="cls-1" d="M276,145.06a3.14,3.14,0,0,1,3.27,3.29,3.28,3.28,0,1,1-3.27-3.29Zm0,1.26c-1.07,0-1.72.85-1.72,2s.65,2.1,1.72,2.1,1.71-.88,1.71-2.1S277,146.32,276,146.32Z"/><path class="cls-1" d="M290.1,147.51v4h-1.56v-3.12c0-.58,0-1.9-1.17-1.9s-1.33,1.41-1.33,2.61v2.41h-1.56v-3.12c0-.58,0-1.9-1.16-1.9s-1.33,1.41-1.33,2.61v2.41h-1.56v-6.3H282v1.43a2.13,2.13,0,0,1,2.05-1.58,2,2,0,0,1,1.94,1.76,2.2,2.2,0,0,1,2.11-1.76C289.44,145.08,290.1,146.2,290.1,147.51Z"/><path class="cls-1" d="M299.19,149.47h-3.56l-.77,2.06h-1.67l3.14-8.4h2.17l3.13,8.4H300Zm-.54-1.46-1.23-3.32L296.17,148Z"/><path class="cls-1" d="M308.54,143.13v8.4H307v-1.24a2.23,2.23,0,0,1-2.05,1.41c-1.75,0-3-1.4-3-3.4a3,3,0,0,1,2.89-3.24,2.52,2.52,0,0,1,2.14,1.3v-3.23ZM307,148.36a1.88,1.88,0,0,0-1.77-2.12,1.83,1.83,0,0,0-1.71,2.07c0,1.31.71,2.23,1.71,2.23S307,149.65,307,148.36Z"/></g></g><g class="cls-2"><path d="M98.23,101.47A3.59,3.59,0,0,1,102,105h-1a2.67,2.67,0,0,0-2.71-2.68c-1.7,0-3,1.41-3,3.49s1.26,3.44,3,3.44a2.58,2.58,0,0,0,2.71-2.52h1a3.51,3.51,0,0,1-3.73,3.38,4,4,0,0,1-4-4.29C94.26,103.27,95.94,101.47,98.23,101.47Z"/><path d="M108.86,106.51V110h-1v-3.21c0-1.65-.33-2.38-1.52-2.38s-2,1.54-2,2.65V110h-1v-8.4h1v4a2.47,2.47,0,0,1,2.32-2.05C108.13,103.57,108.86,104.42,108.86,106.51Z"/><path d="M113.3,103.57a3.29,3.29,0,1,1-3.09,3.28A3.13,3.13,0,0,1,113.3,103.57Zm0,.78a2.53,2.53,0,1,0,2.14,2.5A2.29,2.29,0,0,0,113.3,104.35Z"/><path d="M120.48,103.57a3.29,3.29,0,1,1-3.1,3.28A3.13,3.13,0,0,1,120.48,103.57Zm0,.78a2.53,2.53,0,1,0,2.13,2.5A2.3,2.3,0,0,0,120.48,104.35Z"/><path d="M125.44,107.67c0,1.56,1.58,1.71,2,1.71.72,0,1.59-.38,1.59-1.13s-.85-.86-1.74-1c-1.1-.21-2.54-.42-2.54-1.74,0-1.11,1-1.91,2.51-1.91a2.18,2.18,0,0,1,2.43,2.28h-1a1.33,1.33,0,0,0-1.47-1.52c-.74,0-1.55.31-1.55,1.06s.55.81,1.57,1,2.71.37,2.71,1.77c0,1.08-1,2-2.61,2a2.62,2.62,0,0,1-2.87-2.46Z"/><path d="M133.89,103.57c1.82,0,3,1.45,3,3.42h-5a2.16,2.16,0,0,0,2.13,2.37,1.86,1.86,0,0,0,1.88-1.28l.83.36a2.71,2.71,0,0,1-2.66,1.69,3.29,3.29,0,0,1-.15-6.56Zm0,.77a2.08,2.08,0,0,0-2,1.93h4A2,2,0,0,0,133.88,104.34Z"/><path d="M144.56,106.25V110h-1v-3.75L140,101.6h1.24l2.77,3.79,2.74-3.79H148Z"/><path d="M150.56,103.57a3.29,3.29,0,1,1-3.09,3.28A3.13,3.13,0,0,1,150.56,103.57Zm0,.78a2.53,2.53,0,1,0,2.14,2.5A2.29,2.29,0,0,0,150.56,104.35Z"/><path d="M160.45,103.7V110h-1v-1.92a2.49,2.49,0,0,1-2.33,2c-1.42,0-2.16-.85-2.16-2.94V103.7h1v3.22c0,1.64.34,2.37,1.53,2.37s2-1.53,2-2.65V103.7Z"/><path d="M165.39,103.6v1a1.34,1.34,0,0,0-.49-.1,1.87,1.87,0,0,0-1.64,1.92V110h-1v-6.3h1v1.68A2.27,2.27,0,0,1,165.39,103.6Z"/><path d="M172.73,101.47a3.59,3.59,0,0,1,3.73,3.55h-1a2.68,2.68,0,0,0-2.71-2.68c-1.71,0-2.95,1.41-2.95,3.49s1.25,3.44,2.95,3.44a2.6,2.6,0,0,0,2.71-2.52h1a3.51,3.51,0,0,1-3.73,3.38,4,4,0,0,1-4-4.29C168.76,103.27,170.43,101.47,172.73,101.47Z"/><path d="M183.13,106v4h-1v-2.53c-.2,1.32-.82,2.65-2.39,2.65-1.2,0-2.23-.68-2.23-1.75,0-1.32,1.52-1.85,2.41-2.06l2.21-.53v-.07a1.57,1.57,0,0,0-1.68-1.38,1.82,1.82,0,0,0-1.86,2h-1a2.66,2.66,0,0,1,2.8-2.72A2.44,2.44,0,0,1,183.13,106Zm-1,.39-2,.54c-.91.25-1.65.64-1.65,1.35s.59,1,1.41,1C181.73,109.33,182.17,107.25,182.17,106.4Z"/><path d="M193.84,106.51V110h-1v-3.21c0-.83,0-2.38-1.33-2.38s-1.7,1.43-1.7,2.65V110h-1v-3.21c0-.82,0-2.38-1.33-2.38s-1.71,1.43-1.71,2.65V110h-1v-6.3h1v1.72a2.23,2.23,0,0,1,2.14-1.85c1.28,0,1.69,1,1.81,2a2.27,2.27,0,0,1,2.18-2C193.66,103.57,193.84,105.26,193.84,106.51Z"/><path d="M201.75,106.88a3,3,0,0,1-2.84,3.25,2.46,2.46,0,0,1-2.33-1.68v3.65h-1v-8.4h1v1.48a2.5,2.5,0,0,1,2.26-1.61A3,3,0,0,1,201.75,106.88Zm-1,0a2.29,2.29,0,0,0-2.08-2.55,2.21,2.21,0,0,0-2.16,2.37c0,1.54.92,2.68,2.16,2.68A2.26,2.26,0,0,0,200.79,106.88Z"/><path d="M208.4,106v4h-1v-2.53c-.2,1.32-.81,2.65-2.39,2.65-1.2,0-2.23-.68-2.23-1.75,0-1.32,1.53-1.85,2.41-2.06l2.21-.53v-.07a1.56,1.56,0,0,0-1.68-1.38,1.82,1.82,0,0,0-1.86,2h-1a2.66,2.66,0,0,1,2.8-2.72A2.44,2.44,0,0,1,208.4,106Zm-1,.39-2,.54c-.91.25-1.65.64-1.65,1.35s.59,1,1.41,1C207,109.33,207.44,107.25,207.44,106.4Z"/><path d="M210.65,101.47a.71.71,0,0,1,0,1.41.71.71,0,1,1,0-1.41Zm.48,2.23V110h-1v-6.3Z"/><path d="M218.47,103.72v5.9a2.58,2.58,0,0,1-2.8,2.68,2.54,2.54,0,0,1-2.79-2.14h1a1.67,1.67,0,0,0,1.82,1.41,1.81,1.81,0,0,0,1.88-1.95v-1.17a2.19,2.19,0,0,1-2.09,1.41,2.9,2.9,0,0,1-2.89-3.07,3,3,0,0,1,2.83-3.22,2.13,2.13,0,0,1,2.12,1.32v-1.17Zm-.88,3.07c0-1.3-.69-2.54-2-2.54a2.51,2.51,0,0,0,0,5A2.16,2.16,0,0,0,217.59,106.79Z"/><path d="M225.76,106.51V110h-1v-3.21c0-1.65-.33-2.38-1.52-2.38s-2,1.54-2,2.65V110h-1v-6.3h1v1.92a2.49,2.49,0,0,1,2.32-2.05C225,103.57,225.76,104.42,225.76,106.51Z"/><path d="M236.28,102.49h-3V110h-1v-7.51h-3v-.89h7Z"/><path d="M239.13,110l0,0c-.56,1.39-.9,2.23-2,2.23a2.07,2.07,0,0,1-1.05-.32V111a1.68,1.68,0,0,0,1,.36c.6,0,.8-.73,1.1-1.39v0l-2.48-6.26h1l2,5,1.91-5h1L239.13,110Z"/><path d="M248.73,106.88a3,3,0,0,1-2.84,3.25,2.46,2.46,0,0,1-2.33-1.68v3.65h-1v-8.4h1v1.48a2.5,2.5,0,0,1,2.26-1.61A3,3,0,0,1,248.73,106.88Zm-1,0a2.29,2.29,0,0,0-2.09-2.55,2.2,2.2,0,0,0-2.15,2.37c0,1.54.92,2.68,2.15,2.68A2.26,2.26,0,0,0,247.77,106.88Z"/><path d="M252.73,103.57c1.81,0,3,1.45,3,3.42h-5.05a2.16,2.16,0,0,0,2.13,2.37,1.87,1.87,0,0,0,1.89-1.28l.83.36a2.71,2.71,0,0,1-2.67,1.69,3.29,3.29,0,0,1-.14-6.56Zm0,.77a2.06,2.06,0,0,0-2,1.93h4A2,2,0,0,0,252.72,104.34Z"/></g></g></g></svg>