<svg xmlns="http://www.w3.org/2000/svg" viewBox="0 0 341 220"><defs><style>.cls-1{fill:#fff;}.cls-2{isolation:isolate;}.cls-3{fill:#c47a67;}.cls-4{fill:#231f20;}</style></defs><g id="Layer_2" data-name="Layer 2"><g id="Layer_1-2" data-name="Layer 1"><rect id="Rectangle_1676" data-name="Rectangle 1676" class="cls-1" width="341" height="220"/><g id="Choose_your_Campaign_type" data-name="Choose your Campaign type" class="cls-2"><g class="cls-2"><path d="M68.14,33.62a4.79,4.79,0,0,1,5,4.74H71.76a3.57,3.57,0,0,0-3.62-3.59c-2.27,0-3.94,1.89-3.94,4.66S65.88,44,68.14,44a3.45,3.45,0,0,0,3.62-3.36h1.36a4.69,4.69,0,0,1-5,4.52c-3.06,0-5.3-2.37-5.3-5.73S65.08,33.62,68.14,33.62Z"/><path d="M82.32,40.34V45H81V40.71c0-2.19-.45-3.17-2-3.17s-2.68,2.05-2.68,3.54V45H75.05V33.8h1.28v5.36a3.33,3.33,0,0,1,3.11-2.74C81.34,36.42,82.32,37.56,82.32,40.34Z"/><path d="M88.24,36.42a4.39,4.39,0,0,1,0,8.76,4.18,4.18,0,0,1-4.13-4.39A4.16,4.16,0,0,1,88.24,36.42Zm0,1a3.06,3.06,0,0,0-2.85,3.33,2.89,2.89,0,1,0,5.7,0A3.06,3.06,0,0,0,88.24,37.46Z"/><path d="M97.81,36.42a4.16,4.16,0,0,1,4.12,4.37,4.13,4.13,0,1,1-8.25,0A4.16,4.16,0,0,1,97.81,36.42Zm0,1A3.06,3.06,0,0,0,95,40.79a2.88,2.88,0,1,0,5.69,0A3.06,3.06,0,0,0,97.81,37.46Z"/><path d="M104.41,41.89c0,2.09,2.11,2.28,2.64,2.28,1,0,2.12-.5,2.12-1.51s-1.14-1.15-2.33-1.37c-1.47-.28-3.39-.56-3.39-2.32,0-1.48,1.36-2.55,3.36-2.55a2.91,2.91,0,0,1,3.24,3h-1.28a1.78,1.78,0,0,0-2-2c-1,0-2.08.41-2.08,1.42,0,.82.74,1.08,2.1,1.32s3.62.49,3.62,2.37c0,1.44-1.36,2.64-3.48,2.64-2.56,0-3.84-1.76-3.84-3.29Z"/><path d="M115.69,36.42c2.42,0,4,1.94,4,4.56H113a2.89,2.89,0,0,0,2.85,3.17,2.49,2.49,0,0,0,2.51-1.71l1.11.48a3.62,3.62,0,0,1-3.55,2.26,4.09,4.09,0,0,1-4.2-4.34C111.69,38.41,113.26,36.42,115.69,36.42Zm0,1A2.74,2.74,0,0,0,113,40h5.31A2.69,2.69,0,0,0,115.68,37.45Z"/><path d="M129.92,40v5h-1.4V40l-4.64-6.19h1.65l3.7,5.05,3.66-5.05h1.65Z"/><path d="M137.92,36.42a4.39,4.39,0,0,1,0,8.76,4.18,4.18,0,0,1-4.13-4.39A4.16,4.16,0,0,1,137.92,36.42Zm0,1a3.06,3.06,0,0,0-2.85,3.33,2.89,2.89,0,1,0,5.7,0A3.06,3.06,0,0,0,137.92,37.46Z"/><path d="M151.1,36.6V45h-1.28V42.44a3.33,3.33,0,0,1-3.1,2.74c-1.91,0-2.89-1.14-2.89-3.93V36.6h1.29v4.29c0,2.19.44,3.17,2,3.17s2.67-2.05,2.67-3.54V36.6Z"/><path d="M157.69,36.45v1.39a1.82,1.82,0,0,0-.65-.12,2.49,2.49,0,0,0-2.2,2.56V45h-1.28V36.6h1.28v2.24A3.05,3.05,0,0,1,157.69,36.45Z"/><path d="M167.47,33.62a4.8,4.8,0,0,1,5,4.74h-1.36a3.57,3.57,0,0,0-3.62-3.59c-2.27,0-3.94,1.89-3.94,4.66S165.21,44,167.47,44a3.45,3.45,0,0,0,3.62-3.36h1.36a4.69,4.69,0,0,1-5,4.52c-3.06,0-5.3-2.37-5.3-5.73S164.41,33.62,167.47,33.62Z"/><path d="M181.34,39.67V45h-1.28V41.62c-.27,1.76-1.09,3.54-3.18,3.54-1.6,0-3-.91-3-2.34,0-1.76,2-2.46,3.22-2.75l2.94-.7v-.1a2.09,2.09,0,0,0-2.24-1.84,2.44,2.44,0,0,0-2.48,2.62h-1.28a3.54,3.54,0,0,1,3.73-3.63A3.26,3.26,0,0,1,181.34,39.67Zm-1.28.53-2.62.72c-1.22.33-2.21.85-2.21,1.79s.78,1.39,1.89,1.39C179.47,44.1,180.06,41.33,180.06,40.2Z"/><path d="M195.63,40.34V45h-1.28V40.71c0-1.1,0-3.17-1.78-3.17s-2.27,1.91-2.27,3.54V45H189V40.71c0-1.09,0-3.17-1.78-3.17S185,39.45,185,41.08V45h-1.28V36.6H185v2.29a3,3,0,0,1,2.85-2.47c1.71,0,2.26,1.33,2.42,2.71a3,3,0,0,1,2.91-2.71C195.39,36.42,195.63,38.68,195.63,40.34Z"/><path d="M206.17,40.84c0,2.49-1.61,4.34-3.79,4.34a3.31,3.31,0,0,1-3.11-2.24V47.8H198V36.6h1.28v2a3.33,3.33,0,0,1,3-2.15C204.54,36.42,206.17,38.29,206.17,40.84Zm-1.28,0c0-2-1.18-3.41-2.78-3.41a3,3,0,0,0-2.88,3.17c0,2,1.23,3.57,2.88,3.57S204.89,42.74,204.89,40.84Z"/><path d="M215,39.67V45h-1.28V41.62c-.28,1.76-1.09,3.54-3.19,3.54-1.6,0-3-.91-3-2.34,0-1.76,2-2.46,3.22-2.75l2.95-.7v-.1a2.09,2.09,0,0,0-2.24-1.84A2.44,2.44,0,0,0,209,40.05h-1.28a3.54,3.54,0,0,1,3.73-3.63A3.26,3.26,0,0,1,215,39.67Zm-1.28.53-2.63.72c-1.21.33-2.21.85-2.21,1.79s.79,1.39,1.89,1.39C213.16,44.1,213.76,41.33,213.76,40.2Z"/><path d="M218,33.62a.94.94,0,0,1,0,1.87.94.94,0,1,1,0-1.87Zm.64,3V45h-1.28V36.6Z"/><path d="M228.46,36.61v7.88a3.43,3.43,0,0,1-3.73,3.58c-2,0-3.66-1.15-3.73-2.86h1.28a2.24,2.24,0,0,0,2.44,1.89,2.42,2.42,0,0,0,2.51-2.61V42.94a2.93,2.93,0,0,1-2.8,1.87,3.87,3.87,0,0,1-3.86-4.1c0-2.46,1.6-4.29,3.78-4.29a2.84,2.84,0,0,1,2.83,1.76V36.61Zm-1.17,4.1c0-1.73-.93-3.38-2.69-3.38s-2.75,1.44-2.75,3.35a3,3,0,0,0,2.79,3.25C226.06,43.93,227.29,42.68,227.29,40.71Z"/><path d="M238.19,40.34V45h-1.28V40.71c0-2.19-.45-3.17-2-3.17s-2.68,2.05-2.68,3.54V45h-1.28V36.6h1.28v2.56a3.33,3.33,0,0,1,3.11-2.74C237.21,36.42,238.19,37.56,238.19,40.34Z"/><path d="M252.21,35h-4V45h-1.36V35h-4V33.8h9.29Z"/><path d="M256,45l0,.06c-.75,1.86-1.2,3-2.67,3a2.7,2.7,0,0,1-1.4-.43V46.38a2.26,2.26,0,0,0,1.32.48c.8,0,1.07-1,1.47-1.86v0L251.4,36.6h1.33l2.61,6.69,2.54-6.69h1.28L256,45Z"/><path d="M268.81,40.84c0,2.49-1.61,4.34-3.79,4.34a3.31,3.31,0,0,1-3.11-2.24V47.8h-1.28V36.6h1.28v2a3.33,3.33,0,0,1,3-2.15C267.18,36.42,268.81,38.29,268.81,40.84Zm-1.28,0c0-2-1.18-3.41-2.78-3.41a3,3,0,0,0-2.88,3.17c0,2,1.23,3.57,2.88,3.57S267.53,42.74,267.53,40.84Z"/><path d="M274.14,36.42c2.42,0,4,1.94,4,4.56h-6.74a2.89,2.89,0,0,0,2.85,3.17,2.49,2.49,0,0,0,2.51-1.71l1.1.48a3.6,3.6,0,0,1-3.55,2.26,4.08,4.08,0,0,1-4.19-4.34C270.14,38.41,271.71,36.42,274.14,36.42Zm0,1A2.76,2.76,0,0,0,271.48,40h5.32A2.7,2.7,0,0,0,274.12,37.45Z"/></g></g><g id="Group_2835" data-name="Group 2835"><rect id="Rectangle_1629" data-name="Rectangle 1629" class="cls-3" x="22.22" y="143.83" width="296.56" height="45.13" rx="2"/><path class="cls-4" d="M316.78,189.46H24.22a2.5,2.5,0,0,1-2.5-2.5V145.83a2.5,2.5,0,0,1,2.5-2.5H316.78a2.5,2.5,0,0,1,2.5,2.5V187A2.5,2.5,0,0,1,316.78,189.46ZM24.22,144.33a1.5,1.5,0,0,0-1.5,1.5V187a1.5,1.5,0,0,0,1.5,1.5H316.78a1.5,1.5,0,0,0,1.5-1.5V145.83a1.5,1.5,0,0,0-1.5-1.5Z"/><rect id="Rectangle_1628" data-name="Rectangle 1628" class="cls-3" x="22.22" y="69.69" width="296.56" height="45.13" rx="2"/><path class="cls-4" d="M316.78,115.32H24.22a2.5,2.5,0,0,1-2.5-2.5V71.69a2.5,2.5,0,0,1,2.5-2.5H316.78a2.5,2.5,0,0,1,2.5,2.5v41.13A2.5,2.5,0,0,1,316.78,115.32ZM24.22,70.19a1.5,1.5,0,0,0-1.5,1.5v41.13a1.5,1.5,0,0,0,1.5,1.5H316.78a1.5,1.5,0,0,0,1.5-1.5V71.69a1.5,1.5,0,0,0-1.5-1.5Z"/><g id="Group_2629" data-name="Group 2629"><g id="Upload_my_ad" data-name="Upload my ad" class="cls-2"><g class="cls-2"><path class="cls-1" d="M124.7,86.47h1.89v6.27a2.2,2.2,0,0,0,2.27,2.17,2.15,2.15,0,0,0,2.2-2.17V86.47h1.87v6.41c0,2.2-1.9,3.57-4.08,3.57s-4.15-1.37-4.15-3.57Z"/><path class="cls-1" d="M142.37,92.69c0,2.22-1.39,3.78-3.37,3.78A3,3,0,0,1,136.49,95v3.77h-1.82v-9.8h1.82v1.44a2.61,2.61,0,0,1,2.39-1.64C140.93,88.72,142.37,90.35,142.37,92.69Zm-1.82,0c0-1.53-.83-2.6-2-2.6s-2.07,1.05-2.07,2.54a2.2,2.2,0,0,0,2.07,2.48C139.72,95.09,140.55,94.1,140.55,92.67Z"/><path class="cls-1" d="M145.56,86.47v9.8h-1.82v-9.8Z"/><path class="cls-1" d="M150.75,88.72a3.88,3.88,0,0,1,0,7.75,3.88,3.88,0,0,1,0-7.75Zm0,1.47c-1.24,0-2,1-2,2.37s.76,2.45,2,2.45,2-1,2-2.45A2.1,2.1,0,0,0,150.75,90.19Z"/><path class="cls-1" d="M162.6,91.59v4.68h-1.82V93.86a3.21,3.21,0,0,1-3,2.55,2,2,0,0,1-2.23-1.93c0-1.39,1.48-2.19,3-2.52l2.24-.52v-.06a1.35,1.35,0,0,0-1.54-1.31,1.62,1.62,0,0,0-1.74,1.72h-1.82a3.23,3.23,0,0,1,3.54-3.07C161.17,88.72,162.6,89.84,162.6,91.59Zm-1.82.84-1.89.65c-.86.28-1.36.73-1.36,1.19s.32.68.94.68A2.65,2.65,0,0,0,160.78,92.43Z"/><path class="cls-1" d="M171.59,86.47v9.8h-1.82V94.83a2.61,2.61,0,0,1-2.4,1.64c-2,0-3.49-1.63-3.49-4s1.39-3.78,3.38-3.78a3,3,0,0,1,2.51,1.51V86.47Zm-1.82,6.1a2.21,2.21,0,0,0-2.08-2.48c-1.16,0-2,1-2,2.43s.82,2.6,2,2.6S169.77,94.07,169.77,92.57Z"/><path class="cls-1" d="M187.82,91.58v4.69H186V92.63c0-.67,0-2.21-1.36-2.21s-1.56,1.64-1.56,3v2.81h-1.82V92.63c0-.67,0-2.21-1.36-2.21s-1.55,1.64-1.55,3v2.81h-1.82V88.92h1.82v1.66a2.5,2.5,0,0,1,2.39-1.85A2.28,2.28,0,0,1,183,90.79a2.57,2.57,0,0,1,2.47-2.06C187.05,88.73,187.82,90.05,187.82,91.58Z"/><path class="cls-1" d="M196.05,88.92l-2.89,7.58c-.66,1.68-1.3,2.43-2.52,2.43a2.59,2.59,0,0,1-1.61-.49V96.83a2.4,2.4,0,0,0,1.36.49c.5,0,.74-.42,1-1l.06-.14-2.93-7.21h1.85l1.95,5,2-5Z"/><path class="cls-1" d="M206.52,91.59v4.68H204.7V93.86a3.21,3.21,0,0,1-3,2.55,2,2,0,0,1-2.23-1.93c0-1.39,1.47-2.19,3-2.52l2.24-.52v-.06a1.36,1.36,0,0,0-1.54-1.31,1.62,1.62,0,0,0-1.74,1.72H199.6a3.23,3.23,0,0,1,3.54-3.07C205.09,88.72,206.52,89.84,206.52,91.59Zm-1.82.84-1.89.65c-.86.28-1.36.73-1.36,1.19s.32.68.94.68A2.65,2.65,0,0,0,204.7,92.43Z"/><path class="cls-1" d="M215.51,86.47v9.8h-1.83V94.83a2.61,2.61,0,0,1-2.39,1.64c-2,0-3.49-1.63-3.49-4s1.39-3.78,3.38-3.78a2.92,2.92,0,0,1,2.5,1.51V86.47Zm-1.83,6.1a2.21,2.21,0,0,0-2.07-2.48c-1.16,0-2,1-2,2.43s.83,2.6,2,2.6S213.68,94.07,213.68,92.57Z"/></g></g></g><g id="Group_2630" data-name="Group 2630"><g id="Create_Custom_Ad" data-name="Create Custom Ad" class="cls-2"><g class="cls-2"><path class="cls-1" d="M113,160.38a4.17,4.17,0,0,1,4.41,4.19h-1.89c-.19-1.55-1-2.61-2.52-2.61-1.71,0-3,1.45-3,3.53s1.27,3.51,3,3.51a2.46,2.46,0,0,0,2.51-2.4h1.89a4.06,4.06,0,0,1-4.37,4,5.1,5.1,0,0,1,0-10.2Z"/><path class="cls-1" d="M123.16,162.9v2a3.46,3.46,0,0,0-1-.19,1.39,1.39,0,0,0-1.45,1.51v4.2h-1.82V163h1.82v1.82A2.52,2.52,0,0,1,123.16,162.9Z"/><path class="cls-1" d="M127.31,162.83c2.47,0,3.66,2,3.69,4.3h-5.49a1.87,1.87,0,0,0,1.94,2.06,1.81,1.81,0,0,0,1.83-1.2l1.51.67a3.38,3.38,0,0,1-3.24,1.92,3.71,3.71,0,0,1-3.91-3.85A3.64,3.64,0,0,1,127.31,162.83Zm0,1.39a1.75,1.75,0,0,0-1.79,1.68h3.5A1.7,1.7,0,0,0,127.34,164.22Z"/><path class="cls-1" d="M139,165.7v4.68h-1.82V168a3.2,3.2,0,0,1-3,2.55,2,2,0,0,1-2.23-1.93c0-1.39,1.47-2.19,3-2.52l2.24-.52v-.06a1.35,1.35,0,0,0-1.54-1.31,1.61,1.61,0,0,0-1.73,1.72H132a3.24,3.24,0,0,1,3.55-3.07C137.54,162.83,139,164,139,165.7Zm-1.82.85-1.89.64c-.85.28-1.36.73-1.36,1.19s.33.69.94.69A2.65,2.65,0,0,0,137.14,166.55Z"/><path class="cls-1" d="M145.21,168.52v1.54a2.26,2.26,0,0,1-1.59.52c-1.42,0-2.36-1-2.36-2.68v-3.51H139.8V163h1.46l.45-2.17h1.37V163h1.82v1.36h-1.82v3.51c0,.91.46,1.15,1.06,1.15A1.23,1.23,0,0,0,145.21,168.52Z"/><path class="cls-1" d="M149.48,162.83c2.46,0,3.65,2,3.68,4.3h-5.49a1.87,1.87,0,0,0,2,2.06,1.81,1.81,0,0,0,1.82-1.2l1.51.67a3.37,3.37,0,0,1-3.24,1.92,3.7,3.7,0,0,1-3.9-3.85A3.64,3.64,0,0,1,149.48,162.83Zm0,1.39a1.75,1.75,0,0,0-1.79,1.68h3.5A1.69,1.69,0,0,0,149.5,164.22Z"/><path class="cls-1" d="M162.08,160.38a4.17,4.17,0,0,1,4.41,4.19H164.6c-.18-1.55-1-2.61-2.52-2.61-1.71,0-3,1.45-3,3.53s1.27,3.51,3,3.51a2.46,2.46,0,0,0,2.51-2.4h1.89a4.06,4.06,0,0,1-4.37,4,5.1,5.1,0,0,1,0-10.2Z"/><path class="cls-1" d="M174.62,163v7.35H172.8v-2a2.66,2.66,0,0,1-2.55,2.22c-1.5,0-2.45-1-2.45-2.84V163h1.82v3.64c0,1,.11,2.21,1.4,2.21,1.6,0,1.78-2,1.78-3V163Z"/><path class="cls-1" d="M177.74,167.83c0,1,1.13,1.39,1.78,1.39s1.33-.36,1.33-.91-.66-.71-1.41-.85c-1.31-.26-3.28-.44-3.28-2.22,0-1.24,1-2.41,3.08-2.41,2.38,0,3.15,1.57,3.15,2.66h-1.82a1.22,1.22,0,0,0-1.29-1.3c-.67,0-1.3.37-1.3.94s.56.63,1.44.78c1.3.26,3.25.55,3.25,2.2,0,1.08-.85,2.47-3.22,2.47s-3.53-1.42-3.53-2.75Z"/><path class="cls-1" d="M188.47,168.52v1.54a2.26,2.26,0,0,1-1.59.52c-1.43,0-2.36-1-2.36-2.68v-3.51h-1.46V163h1.46l.44-2.17h1.38V163h1.82v1.36h-1.82v3.51c0,.91.46,1.15,1.06,1.15A1.23,1.23,0,0,0,188.47,168.52Z"/><path class="cls-1" d="M192.89,162.83a3.88,3.88,0,0,1,0,7.75,3.88,3.88,0,0,1,0-7.75Zm0,1.47c-1.25,0-2,1-2,2.37s.75,2.45,2,2.45,2-1,2-2.45A2.1,2.1,0,0,0,192.89,164.3Z"/><path class="cls-1" d="M209.37,165.69v4.69h-1.82v-3.64c0-.67,0-2.21-1.36-2.21s-1.55,1.64-1.55,3v2.81h-1.82v-3.64c0-.67,0-2.21-1.36-2.21s-1.56,1.64-1.56,3v2.81h-1.82V163h1.82v1.67a2.5,2.5,0,0,1,2.4-1.85,2.28,2.28,0,0,1,2.27,2.06,2.56,2.56,0,0,1,2.46-2.06C208.6,162.85,209.37,164.16,209.37,165.69Z"/><path class="cls-1" d="M220,168h-4.16l-.9,2.41h-2l3.67-9.8h2.54l3.65,9.8h-1.94Zm-.63-1.69-1.44-3.88-1.46,3.88Z"/><path class="cls-1" d="M230.89,160.58v9.8h-1.82v-1.44a2.62,2.62,0,0,1-2.4,1.64c-2,0-3.49-1.63-3.49-4s1.39-3.79,3.38-3.79a3,3,0,0,1,2.51,1.52v-3.77Zm-1.82,6.11a2.21,2.21,0,0,0-2.08-2.48c-1.16,0-2,1-2,2.42s.83,2.6,2,2.6S229.07,168.18,229.07,166.69Z"/></g></g></g><g id="Group_2631" data-name="Group 2631"><g id="Or" class="cls-2"><g class="cls-2"><path d="M168.79,125.28a3.57,3.57,0,1,1-3.44,3.55A3.39,3.39,0,0,1,168.79,125.28Zm0,1.06a2.26,2.26,0,0,0-2.14,2.49,2.16,2.16,0,1,0,2.14-2.49Z"/><path d="M177.26,125.32v1.41a2,2,0,0,0-.7-.13,1.72,1.72,0,0,0-1.61,1.8v3.87h-1.3v-6.83H175v1.77A2.39,2.39,0,0,1,177.26,125.32Z"/></g></g></g></g></g></g></svg>