<svg xmlns="http://www.w3.org/2000/svg" viewBox="0 0 332.58 5.93"><defs><style>.cls-1{isolation:isolate;}</style></defs><g id="Layer_2" data-name="Layer 2"><g id="Layer_1-2" data-name="Layer 1"><g id="Group_2625" data-name="Group 2625"><g id="Group_2605" data-name="Group 2605"><g id="CTR" class="cls-1"><g class="cls-1"><path d="M128.07,3.82l.76.19A2.61,2.61,0,0,1,128,5.44a2.4,2.4,0,0,1-1.51.49A2.75,2.75,0,0,1,125,5.55a2.34,2.34,0,0,1-.88-1.09,4,4,0,0,1-.3-1.54,3.38,3.38,0,0,1,.34-1.56,2.37,2.37,0,0,1,1-1A2.84,2.84,0,0,1,126.47,0a2.35,2.35,0,0,1,1.44.44,2.25,2.25,0,0,1,.82,1.23l-.75.18a1.75,1.75,0,0,0-.57-.91,1.56,1.56,0,0,0-1-.29,1.86,1.86,0,0,0-1.1.32,1.62,1.62,0,0,0-.62.85,3.38,3.38,0,0,0-.18,1.1,3.48,3.48,0,0,0,.21,1.27,1.56,1.56,0,0,0,.66.82,1.87,1.87,0,0,0,1,.27,1.59,1.59,0,0,0,1.08-.37A1.82,1.82,0,0,0,128.07,3.82Z"/><path d="M131.22,5.83v-5h-1.89V.1h4.54V.78H132V5.83Z"/><path d="M134.66,5.83V.1h2.54a3.15,3.15,0,0,1,1.16.16A1.25,1.25,0,0,1,139,.8a1.62,1.62,0,0,1,.24.86,1.42,1.42,0,0,1-.4,1,2,2,0,0,1-1.22.53,1.66,1.66,0,0,1,.46.29,3.8,3.8,0,0,1,.63.76l1,1.56h-1L138,4.64c-.23-.35-.41-.61-.55-.79a1.78,1.78,0,0,0-.39-.39,1.14,1.14,0,0,0-.34-.15,2.31,2.31,0,0,0-.42,0h-.88V5.83Zm.76-3.2h1.63a2.51,2.51,0,0,0,.81-.11.91.91,0,0,0,.6-.86.83.83,0,0,0-.3-.66,1.34,1.34,0,0,0-.93-.27h-1.81Z"/></g></g><g id="Engagement_rate" data-name="Engagement rate" class="cls-1"><g class="cls-1"><path d="M0,5.83V.1H4.14V.78H.76V2.53H3.93V3.2H.76v2H4.27v.68Z"/><path d="M5.31,5.83V.1h.78l3,4.5V.1h.72V5.83H9.05L6,1.33v4.5Z"/><path d="M13.78,3.58V2.91H16.2V5a4.1,4.1,0,0,1-1.15.67,3.43,3.43,0,0,1-1.22.23,3.15,3.15,0,0,1-1.53-.37,2.33,2.33,0,0,1-1-1A3.25,3.25,0,0,1,10.91,3a3.46,3.46,0,0,1,.35-1.56,2.27,2.27,0,0,1,1-1.07A3.09,3.09,0,0,1,13.77,0,2.92,2.92,0,0,1,14.9.21a1.83,1.83,0,0,1,.78.56,2.44,2.44,0,0,1,.44.93l-.69.19a2,2,0,0,0-.32-.69,1.34,1.34,0,0,0-.54-.4,2,2,0,0,0-.79-.15,2.41,2.41,0,0,0-.9.16,1.62,1.62,0,0,0-.61.42,1.78,1.78,0,0,0-.36.56A3,3,0,0,0,11.69,3,2.89,2.89,0,0,0,12,4.23a1.67,1.67,0,0,0,.77.76,2.31,2.31,0,0,0,1.07.25,2.45,2.45,0,0,0,1-.19,2.42,2.42,0,0,0,.71-.4V3.58Z"/><path d="M16.69,5.83,18.89.1h.82l2.34,5.73h-.86l-.67-1.74h-2.4L17.5,5.83Zm1.65-2.35h1.95l-.6-1.59c-.18-.48-.32-.88-.41-1.19A6.47,6.47,0,0,1,19,1.8Z"/><path d="M25.34,3.58V2.91h2.42V5a4.1,4.1,0,0,1-1.15.67,3.43,3.43,0,0,1-1.22.23,3.15,3.15,0,0,1-1.53-.37,2.33,2.33,0,0,1-1-1A3.26,3.26,0,0,1,22.46,3a3.6,3.6,0,0,1,.35-1.56,2.33,2.33,0,0,1,1-1.07A3.09,3.09,0,0,1,25.33,0a2.92,2.92,0,0,1,1.13.21,1.83,1.83,0,0,1,.78.56,2.44,2.44,0,0,1,.44.93L27,1.89a2,2,0,0,0-.32-.69,1.38,1.38,0,0,0-.55-.4,2,2,0,0,0-.78-.15,2.41,2.41,0,0,0-.9.16,1.62,1.62,0,0,0-.61.42,2,2,0,0,0-.37.56A3.15,3.15,0,0,0,23.25,3a2.76,2.76,0,0,0,.26,1.28,1.67,1.67,0,0,0,.77.76,2.31,2.31,0,0,0,1.07.25,2.45,2.45,0,0,0,1-.19,2.42,2.42,0,0,0,.71-.4V3.58Z"/><path d="M28.89,5.83V.1H33V.78H29.65V2.53h3.17V3.2H29.65v2h3.52v.68Z"/><path d="M34.19,5.83V.1h1.14l1.36,4.06L37,5c.07-.2.17-.51.31-.91l1.37-4h1V5.83h-.73V1L37.26,5.83h-.68L34.92,1V5.83Z"/><path d="M40.89,5.83V.1H45V.78H41.65V2.53h3.17V3.2H41.65v2h3.52v.68Z"/><path d="M46.21,5.83V.1H47l3,4.5V.1h.73V5.83h-.78l-3-4.5v4.5Z"/><path d="M53.45,5.83v-5H51.56V.1H56.1V.78H54.21V5.83Z"/><path d="M59,5.83V.1h2.54a3.15,3.15,0,0,1,1.16.16,1.25,1.25,0,0,1,.64.54,1.62,1.62,0,0,1,.24.86,1.42,1.42,0,0,1-.4,1,2,2,0,0,1-1.22.53,1.83,1.83,0,0,1,.46.29,3.8,3.8,0,0,1,.63.76l1,1.56h-1L62.3,4.64c-.22-.35-.4-.61-.54-.79a2,2,0,0,0-.39-.39A1.26,1.26,0,0,0,61,3.31a2.31,2.31,0,0,0-.42,0h-.88V5.83Zm.76-3.2h1.63a2.51,2.51,0,0,0,.81-.11.89.89,0,0,0,.44-.34,1,1,0,0,0,.16-.52.83.83,0,0,0-.3-.66,1.36,1.36,0,0,0-.93-.27H59.73Z"/><path d="M64.11,5.83,66.3.1h.82l2.34,5.73H68.6l-.67-1.74H65.54l-.63,1.74Zm1.65-2.35H67.7l-.6-1.59c-.18-.48-.32-.88-.4-1.19a9.05,9.05,0,0,1-.31,1.1Z"/><path d="M70.93,5.83v-5H69.05V.1h4.54V.78h-1.9V5.83Z"/><path d="M74.38,5.83V.1h4.14V.78H75.14V2.53H78.3V3.2H75.14v2h3.51v.68Z"/></g></g><g id="TOTAL_COMMENTS" data-name="TOTAL COMMENTS" class="cls-1"><g class="cls-1"><path d="M261.44,5.83v-5h-1.89V.1h4.54V.78H262.2V5.83Z"/><path d="M264.5,3a3.09,3.09,0,0,1,.76-2.23,2.6,2.6,0,0,1,2-.81,2.78,2.78,0,0,1,1.43.38,2.43,2.43,0,0,1,1,1.06A3.44,3.44,0,0,1,270,3a3.32,3.32,0,0,1-.35,1.56,2.34,2.34,0,0,1-1,1,2.77,2.77,0,0,1-1.39.36,2.7,2.7,0,0,1-1.44-.39,2.57,2.57,0,0,1-1-1.07A3.36,3.36,0,0,1,264.5,3Zm.78,0a2.3,2.3,0,0,0,.55,1.63,1.95,1.95,0,0,0,2.81,0A2.44,2.44,0,0,0,269.19,3,3.05,3.05,0,0,0,269,1.75a1.79,1.79,0,0,0-.7-.81,1.87,1.87,0,0,0-1-.29,1.93,1.93,0,0,0-1.38.56A2.43,2.43,0,0,0,265.28,3.05Z"/><path d="M272.41,5.83v-5h-1.89V.1h4.54V.78h-1.9V5.83Z"/><path d="M274.61,5.83,276.81.1h.82L280,5.83h-.86l-.67-1.74h-2.39l-.63,1.74Zm1.66-2.35h1.94l-.6-1.59c-.18-.48-.32-.88-.41-1.19a6.47,6.47,0,0,1-.31,1.1Z"/><path d="M280.55,5.83V.1h.75V5.15h2.82v.68Z"/><path d="M291,3.82l.76.19a2.61,2.61,0,0,1-.86,1.43,2.4,2.4,0,0,1-1.51.49,2.75,2.75,0,0,1-1.51-.38A2.34,2.34,0,0,1,287,4.46a4,4,0,0,1-.31-1.54,3.38,3.38,0,0,1,.35-1.56,2.31,2.31,0,0,1,1-1A2.84,2.84,0,0,1,289.44,0a2.35,2.35,0,0,1,1.44.44,2.25,2.25,0,0,1,.82,1.23l-.75.18a1.75,1.75,0,0,0-.57-.91,1.59,1.59,0,0,0-1-.29,1.84,1.84,0,0,0-1.1.32,1.57,1.57,0,0,0-.62.85,3.38,3.38,0,0,0-.18,1.1,3.48,3.48,0,0,0,.21,1.27,1.56,1.56,0,0,0,.66.82,1.84,1.84,0,0,0,1,.27,1.59,1.59,0,0,0,1.08-.37A1.82,1.82,0,0,0,291,3.82Z"/><path d="M292.5,3a3.1,3.1,0,0,1,.77-2.23,2.59,2.59,0,0,1,2-.81,2.75,2.75,0,0,1,1.43.38,2.37,2.37,0,0,1,1,1.06A3.31,3.31,0,0,1,298,3a3.32,3.32,0,0,1-.36,1.56,2.32,2.32,0,0,1-1,1,2.8,2.8,0,0,1-1.39.36,2.74,2.74,0,0,1-1.45-.39,2.61,2.61,0,0,1-1-1.07A3.22,3.22,0,0,1,292.5,3Zm.78,0a2.3,2.3,0,0,0,.56,1.63,1.81,1.81,0,0,0,1.39.6,1.84,1.84,0,0,0,1.41-.6A2.45,2.45,0,0,0,297.2,3,2.89,2.89,0,0,0,297,1.75a1.83,1.83,0,0,0-.69-.81,1.92,1.92,0,0,0-1-.29,2,2,0,0,0-1.39.56A2.43,2.43,0,0,0,293.28,3.05Z"/><path d="M298.93,5.83V.1h1.14l1.36,4.06.27.84c.06-.2.17-.51.3-.91l1.38-4h1V5.83h-.73V1L302,5.83h-.68L299.66,1V5.83Z"/><path d="M305.59,5.83V.1h1.14l1.36,4.06c.12.37.22.66.27.84.07-.2.17-.51.31-.91L310,.1h1V5.83h-.73V1l-1.67,4.79H308L306.32,1V5.83Z"/><path d="M312.3,5.83V.1h4.14V.78h-3.39V2.53h3.17V3.2h-3.17v2h3.52v.68Z"/><path d="M317.61,5.83V.1h.78l3,4.5V.1h.73V5.83h-.78l-3-4.5v4.5Z"/><path d="M324.85,5.83v-5H323V.1h4.54V.78h-1.89V5.83Z"/><path d="M328,4l.72-.06a1.57,1.57,0,0,0,.23.7,1.43,1.43,0,0,0,.58.45,2.23,2.23,0,0,0,.88.17,2.3,2.3,0,0,0,.77-.13,1.1,1.1,0,0,0,.49-.36.8.8,0,0,0,.16-.49.78.78,0,0,0-.15-.47,1.34,1.34,0,0,0-.52-.34c-.15,0-.49-.15-1-.27a5.72,5.72,0,0,1-1.11-.36,1.62,1.62,0,0,1-.61-.54,1.33,1.33,0,0,1-.2-.71,1.41,1.41,0,0,1,.25-.81,1.49,1.49,0,0,1,.72-.57,2.69,2.69,0,0,1,1.05-.2,2.8,2.8,0,0,1,1.12.21,1.67,1.67,0,0,1,.75.6,1.77,1.77,0,0,1,.28.9l-.73.06a1.19,1.19,0,0,0-.39-.82,1.53,1.53,0,0,0-1-.28,1.65,1.65,0,0,0-1,.25.76.76,0,0,0-.32.61.65.65,0,0,0,.23.51,3,3,0,0,0,1.14.41,8.52,8.52,0,0,1,1.27.36,1.7,1.7,0,0,1,.73.59,1.38,1.38,0,0,1,.24.81,1.58,1.58,0,0,1-.26.86,1.68,1.68,0,0,1-.75.63,2.65,2.65,0,0,1-1.11.23,3.32,3.32,0,0,1-1.3-.23,1.83,1.83,0,0,1-.82-.68A2,2,0,0,1,328,4Z"/></g></g><g id="TOTAL_LIKES" data-name="TOTAL LIKES" class="cls-1"><g class="cls-1"><path d="M198.44,5.83v-5h-1.89V.1h4.54V.78H199.2V5.83Z"/><path d="M201.5,3a3.09,3.09,0,0,1,.76-2.23,2.6,2.6,0,0,1,2-.81,2.78,2.78,0,0,1,1.43.38,2.43,2.43,0,0,1,1,1.06A3.44,3.44,0,0,1,207,3a3.32,3.32,0,0,1-.35,1.56,2.34,2.34,0,0,1-1,1,2.77,2.77,0,0,1-1.39.36,2.7,2.7,0,0,1-1.44-.39,2.57,2.57,0,0,1-1-1.07A3.36,3.36,0,0,1,201.5,3Zm.78,0a2.3,2.3,0,0,0,.55,1.63,1.95,1.95,0,0,0,2.81,0A2.44,2.44,0,0,0,206.19,3,3.05,3.05,0,0,0,206,1.75a1.79,1.79,0,0,0-.7-.81,1.87,1.87,0,0,0-1-.29,1.93,1.93,0,0,0-1.38.56A2.43,2.43,0,0,0,202.28,3.05Z"/><path d="M209.41,5.83v-5h-1.89V.1h4.54V.78h-1.9V5.83Z"/><path d="M211.61,5.83,213.81.1h.82L217,5.83h-.86l-.67-1.74h-2.39l-.63,1.74Zm1.66-2.35h1.94l-.6-1.59c-.18-.48-.32-.88-.41-1.19a6.47,6.47,0,0,1-.31,1.1Z"/><path d="M217.55,5.83V.1h.75V5.15h2.82v.68Z"/><path d="M223.92,5.83V.1h.76V5.15h2.82v.68Z"/><path d="M228.53,5.83V.1h.76V5.83Z"/><path d="M230.59,5.83V.1h.76V2.94L234.2.1h1l-2.4,2.32,2.51,3.41h-1l-2-2.9-.94.91v2Z"/><path d="M236,5.83V.1h4.14V.78h-3.39V2.53h3.17V3.2h-3.17v2h3.52v.68Z"/><path d="M241,4l.71-.06a1.7,1.7,0,0,0,.24.7,1.37,1.37,0,0,0,.58.45,2.33,2.33,0,0,0,1.64,0,1.14,1.14,0,0,0,.5-.36.87.87,0,0,0,.16-.49.78.78,0,0,0-.16-.47,1.22,1.22,0,0,0-.51-.34c-.16,0-.5-.15-1-.27a5.48,5.48,0,0,1-1.11-.36,1.55,1.55,0,0,1-.61-.54,1.25,1.25,0,0,1-.2-.71,1.47,1.47,0,0,1,.24-.81,1.59,1.59,0,0,1,.72-.57,2.77,2.77,0,0,1,1.05-.2,2.85,2.85,0,0,1,1.13.21,1.65,1.65,0,0,1,.74.6,1.78,1.78,0,0,1,.29.9l-.73.06a1.15,1.15,0,0,0-.4-.82,1.51,1.51,0,0,0-1-.28,1.67,1.67,0,0,0-1,.25.75.75,0,0,0-.31.61.64.64,0,0,0,.22.51,3.13,3.13,0,0,0,1.14.41,8.16,8.16,0,0,1,1.27.36,1.8,1.8,0,0,1,.74.59,1.38,1.38,0,0,1,.24.81,1.58,1.58,0,0,1-.26.86,1.76,1.76,0,0,1-.76.63,2.57,2.57,0,0,1-1.1.23,3.29,3.29,0,0,1-1.3-.23,1.86,1.86,0,0,1-.83-.68A2,2,0,0,1,241,4Z"/></g></g><g id="Clicks" class="cls-1"><g class="cls-1"><path d="M158.07,3.82l.76.19A2.61,2.61,0,0,1,158,5.44a2.4,2.4,0,0,1-1.51.49A2.75,2.75,0,0,1,155,5.55a2.34,2.34,0,0,1-.88-1.09,4,4,0,0,1-.3-1.54,3.38,3.38,0,0,1,.34-1.56,2.37,2.37,0,0,1,1-1A2.84,2.84,0,0,1,156.47,0a2.35,2.35,0,0,1,1.44.44,2.25,2.25,0,0,1,.82,1.23l-.75.18a1.75,1.75,0,0,0-.57-.91,1.56,1.56,0,0,0-1-.29,1.86,1.86,0,0,0-1.1.32,1.62,1.62,0,0,0-.62.85,3.38,3.38,0,0,0-.18,1.1,3.48,3.48,0,0,0,.21,1.27,1.56,1.56,0,0,0,.66.82,1.87,1.87,0,0,0,1,.27,1.59,1.59,0,0,0,1.08-.37A1.82,1.82,0,0,0,158.07,3.82Z"/><path d="M159.73,5.83V.1h.76V5.15h2.82v.68Z"/><path d="M164.34,5.83V.1h.76V5.83Z"/><path d="M170.52,3.82l.76.19a2.61,2.61,0,0,1-.86,1.43,2.4,2.4,0,0,1-1.51.49,2.75,2.75,0,0,1-1.51-.38,2.34,2.34,0,0,1-.88-1.09,4,4,0,0,1-.31-1.54,3.38,3.38,0,0,1,.35-1.56,2.31,2.31,0,0,1,1-1A2.84,2.84,0,0,1,168.92,0a2.35,2.35,0,0,1,1.44.44,2.25,2.25,0,0,1,.82,1.23l-.75.18a1.75,1.75,0,0,0-.57-.91,1.56,1.56,0,0,0-1-.29,1.84,1.84,0,0,0-1.1.32,1.62,1.62,0,0,0-.62.85,3.38,3.38,0,0,0-.18,1.1,3.48,3.48,0,0,0,.21,1.27,1.56,1.56,0,0,0,.66.82,1.84,1.84,0,0,0,1,.27,1.59,1.59,0,0,0,1.08-.37A1.82,1.82,0,0,0,170.52,3.82Z"/><path d="M172.18,5.83V.1h.76V2.94L175.78.1h1l-2.4,2.32,2.5,3.41h-1l-2-2.9-.94.91v2Z"/><path d="M177.29,4l.71-.06a1.7,1.7,0,0,0,.24.7,1.37,1.37,0,0,0,.58.45,2.33,2.33,0,0,0,1.64,0,1.14,1.14,0,0,0,.5-.36.87.87,0,0,0,.16-.49A.78.78,0,0,0,181,3.8a1.22,1.22,0,0,0-.51-.34c-.16,0-.5-.15-1-.27a5.48,5.48,0,0,1-1.11-.36,1.55,1.55,0,0,1-.61-.54,1.25,1.25,0,0,1-.2-.71,1.47,1.47,0,0,1,.24-.81,1.59,1.59,0,0,1,.72-.57,2.77,2.77,0,0,1,1.05-.2,2.85,2.85,0,0,1,1.13.21,1.65,1.65,0,0,1,.74.6,1.78,1.78,0,0,1,.29.9l-.73.06a1.15,1.15,0,0,0-.4-.82,1.51,1.51,0,0,0-1-.28,1.67,1.67,0,0,0-1,.25.75.75,0,0,0-.31.61.64.64,0,0,0,.22.51,3.13,3.13,0,0,0,1.14.41,8.16,8.16,0,0,1,1.27.36,1.8,1.8,0,0,1,.74.59,1.38,1.38,0,0,1,.24.81,1.58,1.58,0,0,1-.26.86,1.76,1.76,0,0,1-.76.63,2.57,2.57,0,0,1-1.1.23,3.29,3.29,0,0,1-1.3-.23A1.86,1.86,0,0,1,177.6,5,2,2,0,0,1,177.29,4Z"/></g></g><g id="CPE" class="cls-1"><g class="cls-1"><path d="M98.07,3.82l.76.19A2.61,2.61,0,0,1,98,5.44a2.4,2.4,0,0,1-1.51.49A2.75,2.75,0,0,1,95,5.55a2.34,2.34,0,0,1-.88-1.09,4,4,0,0,1-.3-1.54,3.38,3.38,0,0,1,.34-1.56,2.37,2.37,0,0,1,1-1A2.84,2.84,0,0,1,96.47,0a2.35,2.35,0,0,1,1.44.44,2.25,2.25,0,0,1,.82,1.23L98,1.85a1.75,1.75,0,0,0-.57-.91,1.56,1.56,0,0,0-1-.29,1.86,1.86,0,0,0-1.1.32,1.62,1.62,0,0,0-.62.85,3.38,3.38,0,0,0-.18,1.1,3.48,3.48,0,0,0,.21,1.27,1.56,1.56,0,0,0,.66.82,1.87,1.87,0,0,0,1,.27,1.59,1.59,0,0,0,1.08-.37A1.82,1.82,0,0,0,98.07,3.82Z"/><path d="M99.76,5.83V.1h2.16a4.75,4.75,0,0,1,.87.06,1.67,1.67,0,0,1,.71.26A1.51,1.51,0,0,1,104,1a1.79,1.79,0,0,1,.17.78A1.72,1.72,0,0,1,103.67,3,2.22,2.22,0,0,1,102,3.5h-1.47V5.83Zm.76-3H102a1.56,1.56,0,0,0,1-.27,1,1,0,0,0,.31-.77,1,1,0,0,0-.18-.61.83.83,0,0,0-.48-.34,2.9,2.9,0,0,0-.71,0h-1.46Z"/><path d="M105.11,5.83V.1h4.14V.78h-3.38V2.53H109V3.2h-3.17v2h3.52v.68Z"/></g></g></g></g></g></g></svg>