<svg xmlns="http://www.w3.org/2000/svg" width="26.541" height="26.535" viewBox="0 0 26.541 26.535">
  <g id="Group_427" data-name="Group 427" transform="translate(0 0)">
    <g id="Group_361" data-name="Group 361" transform="translate(0 0)">
      <path id="Icon_awesome-instagram" data-name="Icon awesome-instagram" d="M13.268,8.7a6.8,6.8,0,1,0,6.8,6.8A6.792,6.792,0,0,0,13.268,8.7Zm0,11.226a4.423,4.423,0,1,1,4.423-4.423,4.431,4.431,0,0,1-4.423,4.423Zm8.668-11.5A1.587,1.587,0,1,1,20.35,6.837,1.583,1.583,0,0,1,21.937,8.424Zm4.506,1.611A7.853,7.853,0,0,0,24.3,4.474a7.9,7.9,0,0,0-5.56-2.143c-2.191-.124-8.757-.124-10.948,0a7.893,7.893,0,0,0-5.56,2.137,7.879,7.879,0,0,0-2.143,5.56c-.124,2.191-.124,8.757,0,10.948a7.853,7.853,0,0,0,2.143,5.56,7.915,7.915,0,0,0,5.56,2.143c2.191.124,8.757.124,10.948,0a7.853,7.853,0,0,0,5.56-2.143,7.9,7.9,0,0,0,2.143-5.56c.124-2.191.124-8.751,0-10.942Zm-2.83,13.293a4.478,4.478,0,0,1-2.522,2.522c-1.747.693-5.891.533-7.822.533s-6.081.154-7.822-.533a4.478,4.478,0,0,1-2.522-2.522c-.693-1.747-.533-5.891-.533-7.822s-.154-6.081.533-7.822A4.478,4.478,0,0,1,5.447,5.161c1.747-.693,5.891-.533,7.822-.533s6.081-.154,7.822.533a4.478,4.478,0,0,1,2.522,2.522c.693,1.747.533,5.891.533,7.822S24.3,21.586,23.612,23.327Z" transform="translate(0.005 -2.238)"/>
    </g>
  </g>
</svg>
