<svg xmlns="http://www.w3.org/2000/svg" width="18" height="18.377" viewBox="0 0 18 18.377">
  <g id="Places" transform="translate(0.185 -0.249)">
    <rect id="Rectangle_305" data-name="Rectangle 305" width="18" height="18" transform="translate(-0.185 0.249)" fill="none"/>
    <path id="Path_114" data-name="Path 114" d="M8.228,10.717A3.33,3.33,0,0,0,11.722,7.56a3.419,3.419,0,0,0-3.493-3.27A3.33,3.33,0,0,0,4.735,7.447,3.5,3.5,0,0,0,8.228,10.717ZM2.364,2.148a8.92,8.92,0,0,1,11.728,0,6.987,6.987,0,0,1,0,10.6l-5.864,5.3-5.864-5.3A7.171,7.171,0,0,1,2.364,2.148Z" transform="translate(0.428 0.582)" fill-rule="evenodd"/>
  </g>
</svg>
