<svg xmlns="http://www.w3.org/2000/svg" width="197" height="48.105" viewBox="0 0 197 48.105">
  <g id="logo" transform="translate(0 0)">
    <path id="Path_167" data-name="Path 167" d="M52.479,6.749h-10.9a1.514,1.514,0,0,0-1.5,1.278L35.671,35.982a.909.909,0,0,0,.9,1.049h5.2a1.514,1.514,0,0,0,1.5-1.28l1.189-7.54a1.514,1.514,0,0,1,1.5-1.28h3.451c7.181,0,11.326-3.475,12.408-10.361.488-3.013.021-5.38-1.39-7.038-1.549-1.82-4.3-2.783-7.946-2.783Zm1.258,10.21c-.6,3.912-3.585,3.912-6.475,3.912H45.616l1.154-7.305a.909.909,0,0,1,.9-.767h.754c1.969,0,3.826,0,4.785,1.122a3.633,3.633,0,0,1,.529,3.038Zm31.329-.126h-5.22a.909.909,0,0,0-.9.767l-.231,1.46-.365-.529c-1.13-1.64-3.65-2.189-6.166-2.189A12,12,0,0,0,60.53,26.84a9.854,9.854,0,0,0,1.945,8.02,8.168,8.168,0,0,0,6.575,2.656,9.989,9.989,0,0,0,7.226-2.989l-.233,1.451a.909.909,0,0,0,.9,1.052h4.7a1.514,1.514,0,0,0,1.5-1.28L85.96,17.882a.905.905,0,0,0-.894-1.049Zm-7.277,10.16a5.818,5.818,0,0,1-5.89,4.985A4.044,4.044,0,0,1,67.574,26.9a5.844,5.844,0,0,1,5.85-5.024A4.4,4.4,0,0,1,76.906,23.3,4.518,4.518,0,0,1,77.789,26.993Zm35.08-10.16h-5.246a1.521,1.521,0,0,0-1.255.665L99.133,28.155,96.066,17.914a1.519,1.519,0,0,0-1.454-1.081H89.457a.909.909,0,0,0-.862,1.2l5.778,16.957-5.432,7.669a.909.909,0,0,0,.741,1.435h5.24a1.513,1.513,0,0,0,1.245-.65L113.615,18.26a.909.909,0,0,0-.746-1.427Z" transform="translate(21.183 4.009)" fill="#253b80"/>
    <path id="Path_168" data-name="Path 168" d="M101.26,6.75h-10.9a1.514,1.514,0,0,0-1.5,1.278L84.452,35.983a.907.907,0,0,0,.9,1.049h5.6a1.06,1.06,0,0,0,1.046-.9l1.251-7.924a1.514,1.514,0,0,1,1.5-1.28h3.449c7.183,0,11.326-3.475,12.41-10.361.489-3.013.019-5.38-1.392-7.038-1.548-1.82-4.294-2.783-7.943-2.783Zm1.258,10.21c-.595,3.912-3.583,3.912-6.475,3.912H94.4l1.156-7.305a.905.905,0,0,1,.9-.767H97.2c1.967,0,3.826,0,4.785,1.122a3.633,3.633,0,0,1,.528,3.038Zm31.328-.126h-5.217a.9.9,0,0,0-.9.767l-.231,1.46-.367-.529c-1.13-1.64-3.649-2.189-6.164-2.189a12,12,0,0,0-11.654,10.5,9.859,9.859,0,0,0,1.943,8.02,8.173,8.173,0,0,0,6.575,2.656,9.989,9.989,0,0,0,7.226-2.989l-.233,1.451a.909.909,0,0,0,.9,1.052h4.7a1.514,1.514,0,0,0,1.5-1.28l2.823-17.868a.91.91,0,0,0-.9-1.049Zm-7.277,10.16a5.816,5.816,0,0,1-5.89,4.985,4.408,4.408,0,0,1-3.505-1.408,4.45,4.45,0,0,1-.819-3.668,5.846,5.846,0,0,1,5.85-5.024,4.4,4.4,0,0,1,3.481,1.422A4.5,4.5,0,0,1,126.568,26.994ZM140,7.516l-4.474,28.466a.907.907,0,0,0,.9,1.049h4.5a1.512,1.512,0,0,0,1.5-1.28L146.828,7.8a.909.909,0,0,0-.9-1.05H140.9a.91.91,0,0,0-.9.768Z" transform="translate(50.161 4.008)" fill="#179bd7"/>
    <path id="Path_169" data-name="Path 169" d="M10.952,45.864l.834-5.3-1.857-.043H1.061L7.224,1.451a.5.5,0,0,1,.5-.427H22.676c4.964,0,8.389,1.033,10.178,3.072a7,7,0,0,1,1.631,3.056,11.032,11.032,0,0,1,.011,4.215l-.019.123v1.078l.838.475a5.882,5.882,0,0,1,1.7,1.294,6.027,6.027,0,0,1,1.377,3.089,13.068,13.068,0,0,1-.2,4.482,15.785,15.785,0,0,1-1.836,5.074,10.436,10.436,0,0,1-2.909,3.188,11.8,11.8,0,0,1-3.918,1.768,19.539,19.539,0,0,1-4.9.566H23.47a3.5,3.5,0,0,0-3.461,2.954l-.088.477-1.473,9.333-.067.343a.3.3,0,0,1-.092.2.247.247,0,0,1-.153.056Z" transform="translate(0.63 0.608)" fill="#253b80"/>
    <path id="Path_170" data-name="Path 170" d="M33.063,7.667Q33,8.1,32.91,8.544c-1.972,10.124-8.718,13.621-17.334,13.621H11.19a2.13,2.13,0,0,0-2.106,1.8L6.838,38.214,6.2,42.251a1.122,1.122,0,0,0,1.108,1.3h7.78a1.872,1.872,0,0,0,1.849-1.578l.077-.4,1.465-9.3.094-.51a1.871,1.871,0,0,1,1.849-1.581h1.164c7.538,0,13.439-3.061,15.164-11.917.721-3.7.348-6.789-1.559-8.962a7.439,7.439,0,0,0-2.13-1.642Z" transform="translate(3.676 4.554)" fill="#179bd7"/>
    <path id="Path_171" data-name="Path 171" d="M29.921,7.415A15.553,15.553,0,0,0,28,6.989a24.363,24.363,0,0,0-3.867-.282H12.417A1.868,1.868,0,0,0,10.57,8.288L8.077,24.079,8,24.54a2.13,2.13,0,0,1,2.106-1.8H14.5c8.616,0,15.362-3.5,17.334-13.621.059-.3.108-.591.153-.877a10.511,10.511,0,0,0-1.621-.684q-.22-.073-.442-.139Z" transform="translate(4.755 3.984)" fill="#222d65"/>
    <path id="Path_172" data-name="Path 172" d="M15.325,12.272a1.863,1.863,0,0,1,1.847-1.58H28.892a24.363,24.363,0,0,1,3.867.282,15.553,15.553,0,0,1,2.361.563,10.669,10.669,0,0,1,1.621.684c.587-3.741,0-6.288-2.028-8.6C32.483,1.087,28.458,0,23.308,0H8.356A2.137,2.137,0,0,0,6.244,1.806L.016,41.282a1.285,1.285,0,0,0,1.267,1.486h9.231l2.318-14.7,2.493-15.791Z" transform="translate(0 0)" fill="#253b80"/>
  </g>
</svg>
