<svg xmlns="http://www.w3.org/2000/svg" width="6.222" height="9.334" viewBox="0 0 6.222 9.334">
  <path id="Path_190" data-name="Path 190" d="M16.645,11.25c1.823,0,3.077,1.011,3.077,2.465a2.378,2.378,0,0,1-1.366,2.158c-.846.491-1.133.851-1.133,1.473v.384H15.537l-.015-.418a2.024,2.024,0,0,1,1.147-2.139c.822-.491,1.167-.8,1.167-1.4a1.18,1.18,0,0,0-1.308-1.045,1.23,1.23,0,0,0-1.3,1.2H13.5C13.534,12.354,14.691,11.25,16.645,11.25Zm-1.279,8.332a1.044,1.044,0,1,1,1.04,1A1.018,1.018,0,0,1,15.367,19.582Z" transform="translate(-13.5 -11.25)"/>
</svg>
