<svg id="See_Password" data-name="See Password" xmlns="http://www.w3.org/2000/svg" width="21.001" height="13.5" viewBox="0 0 21.001 13.5">
  <path id="Path_223" data-name="Path 223" d="M12.741,7.875C8.972,7.875,6,10.247,2.447,14.123a.741.741,0,0,0,0,1c3.042,3.361,5.723,6.253,10.3,6.253,4.519,0,7.908-3.642,10.317-6.281a.735.735,0,0,0,.023-.97C20.626,11.147,17.227,7.875,12.741,7.875Zm.206,10.964a4.219,4.219,0,1,1,4.017-4.017A4.22,4.22,0,0,1,12.947,18.839Z" transform="translate(-2.252 -7.875)"/>
  <path id="Path_224" data-name="Path 224" d="M16.5,14.3a2.2,2.2,0,0,1,.145-.792c-.047,0-.094,0-.145,0a3,3,0,1,0,3,3c0-.061,0-.122,0-.183a2.079,2.079,0,0,1-.853.183A2.176,2.176,0,0,1,16.5,14.3Z" transform="translate(-6.002 -9.75)"/>
</svg>
