<svg id="Group_974" data-name="Group 974" xmlns="http://www.w3.org/2000/svg" width="37.462" height="21.407" viewBox="0 0 37.462 21.407">
  <g id="Group_969" data-name="Group 969">
    <g id="Toggle">
      <g id="Base_" data-name="Base " fill="#fff">
        <path d="M 26.75844764709473 20.40676116943359 L 10.70337677001953 20.40676116943359 C 5.352917194366455 20.40676116943359 0.9999969601631165 16.05384063720703 0.9999969601631165 10.7033805847168 C 0.9999969601631165 5.352920532226563 5.352917194366455 1.000000596046448 10.70337677001953 1.000000596046448 L 26.75844764709473 1.000000596046448 C 32.10891723632813 1.000000596046448 36.46183776855469 5.352920532226563 36.46183776855469 10.7033805847168 C 36.46183776855469 16.05384063720703 32.10891723632813 20.40676116943359 26.75844764709473 20.40676116943359 Z" stroke="none"/>
        <path d="M 10.70337677001953 2 C 5.904317855834961 2 1.999996185302734 5.90432071685791 1.999996185302734 10.7033805847168 C 1.999996185302734 15.50244045257568 5.904317855834961 19.40676116943359 10.70337677001953 19.40676116943359 L 26.75844573974609 19.40676116943359 C 31.55751800537109 19.40676116943359 35.46183776855469 15.50244045257568 35.46183776855469 10.7033805847168 C 35.46183776855469 5.90432071685791 31.55751800537109 2 26.75844573974609 2 L 10.70337677001953 2 M 10.70337677001953 0 L 26.75844573974609 0 C 32.66976547241211 0 37.46183776855469 4.792070388793945 37.46183776855469 10.7033805847168 C 37.46183776855469 16.61469078063965 32.66976547241211 21.40676116943359 26.75844573974609 21.40676116943359 L 10.70337677001953 21.40676116943359 C 4.792068481445313 21.40676116943359 -3.814697265625e-06 16.61469078063965 -3.814697265625e-06 10.7033805847168 C -3.814697265625e-06 4.792070388793945 4.792068481445313 0 10.70337677001953 0 Z" stroke="none"/>
      </g>
      <g id="Handle_" data-name="Handle " transform="translate(2.537 2.811)" fill="#c47a67" stroke="#000" stroke-width="2">
        <rect width="16" height="16" rx="8" stroke="none"/>
        <rect x="1" y="1" width="14" height="14" rx="7" fill="none"/>
      </g>
    </g>
  </g>
</svg>
